<?xml version="1.0" encoding="UTF-8" standalone="no"?>
<!DOCTYPE svg PUBLIC "-//W3C//DTD SVG 1.1//EN" "http://www.w3.org/Graphics/SVG/1.1/DTD/svg11.dtd">
<svg xmlns="http://www.w3.org/2000/svg" version="1.1" viewBox="0 0 212 258" width="212.0pt" height="258.0pt">
  <path d="M 0.00 0.00 L 212.00 0.00 L 212.00 258.00 L 0.00 258.00 L 0.00 0.00 Z" fill="#01000000" />
  <path d="M 101.99 2.42 C 107.12 3.14 111.96 1.37 117.06 1.91 C 122.40 2.47 127.57 3.21 132.53 5.39 C 145.47 11.05 153.30 25.35 154.27 39.00 C 154.91 47.05 149.09 51.81 148.14 59.99 C 148.59 62.72 150.48 65.17 151.16 67.90 C 152.31 72.19 152.55 77.77 149.21 81.20 C 147.77 82.88 145.02 82.55 143.00 82.66 C 131.18 82.46 117.78 80.00 105.21 81.67 C 94.60 83.41 85.03 92.09 74.78 95.34 C 71.71 96.21 68.57 96.09 66.14 93.85 C 62.57 89.90 64.08 83.24 60.24 79.75 C 53.37 71.76 48.15 62.61 46.72 52.03 C 45.58 44.82 47.57 37.06 50.64 30.53 C 60.13 11.95 81.23 0.44 101.99 2.42 Z" fill="#000000" />
<path d="M 90.36 8.18 C 85.69 10.84 81.36 13.71 78.14 18.11 C 73.61 24.55 70.09 32.02 70.95 40.10 C 71.58 44.66 72.70 49.75 75.43 53.55 C 78.99 58.40 85.19 60.72 91.10 60.08 C 100.07 59.11 108.00 55.75 117.03 55.10 C 126.10 53.98 135.54 55.56 144.39 53.71 C 143.65 56.06 142.99 58.43 142.39 60.82 C 128.10 60.79 114.18 60.66 100.20 64.19 C 92.50 66.19 84.80 69.09 77.59 72.45 C 73.41 71.15 69.47 69.86 66.27 66.72 C 58.37 59.69 55.39 49.49 53.40 39.47 C 58.22 22.71 73.62 11.21 90.36 8.18 Z" fill="#ffffff" />
<path d="M 127.69 10.30 C 134.92 12.85 140.23 18.37 143.67 25.10 C 142.12 25.82 140.25 27.59 138.50 26.47 C 135.69 24.72 133.50 22.09 130.68 20.31 C 125.73 17.17 119.83 15.40 113.99 15.00 C 111.28 14.74 108.43 14.86 105.77 14.26 C 103.70 13.25 104.64 10.55 104.54 8.72 C 112.47 6.75 120.16 6.97 127.69 10.30 Z" fill="#607891" />
<path d="M 104.54 8.72 C 104.64 10.55 103.70 13.25 105.77 14.26 C 108.43 14.86 111.28 14.74 113.99 15.00 C 119.83 15.40 125.73 17.17 130.68 20.31 C 133.50 22.09 135.69 24.72 138.50 26.47 C 140.25 27.59 142.12 25.82 143.67 25.10 C 145.63 29.11 147.23 33.54 147.69 38.01 C 147.90 40.86 147.95 43.76 146.16 46.16 C 144.45 48.61 141.25 48.96 138.52 49.36 C 130.50 50.14 122.39 49.04 114.22 50.22 C 107.25 51.14 100.61 53.30 93.73 54.58 C 89.90 55.18 85.17 55.67 81.89 53.12 C 77.45 49.94 75.82 43.14 75.61 37.99 C 76.18 30.96 79.45 23.48 84.46 18.46 C 90.07 13.33 97.13 10.21 104.54 8.72 Z" fill="#374350" />
<path d="M 53.40 39.47 C 55.39 49.49 58.37 59.69 66.27 66.72 C 69.47 69.86 73.41 71.15 77.59 72.45 C 73.69 74.36 69.86 76.37 66.09 78.50 C 62.49 73.98 59.11 69.43 56.95 64.02 C 53.28 56.29 51.44 47.96 53.40 39.47 Z" fill="#d1c5b1" />
<path d="M 144.49 64.37 C 145.27 66.58 146.22 68.87 146.57 71.19 C 146.93 73.32 145.92 75.37 145.29 77.36 C 133.20 77.58 121.03 75.15 109.01 76.04 C 101.48 76.52 94.47 79.22 88.14 83.23 C 84.22 81.31 80.87 78.90 77.56 76.08 C 87.44 72.01 96.85 67.94 107.51 66.24 C 119.95 63.84 131.68 64.63 144.49 64.37 Z" fill="#d46b25" />
<path d="M 77.56 76.08 C 80.87 78.90 84.22 81.31 88.14 83.23 C 82.21 86.57 75.60 91.10 68.74 91.66 C 67.56 88.45 66.88 85.23 66.45 81.84 C 70.08 79.71 73.61 77.59 77.56 76.08 Z" fill="#8b4413" />
</svg>